<svg width="14" height="14" viewBox="0 0 14 14" fill="none" xmlns="http://www.w3.org/2000/svg">
<path d="M6.33289 1.14886H5.14781C2.18509 1.14886 1 2.33395 1 5.29667V8.85193C1 11.8147 2.18509 12.9997 5.14781 12.9997H8.70307C11.6658 12.9997 12.8509 11.8147 12.8509 8.85193V7.66685" stroke="white" stroke-linecap="round" stroke-linejoin="round"/>
<path d="M9.31978 1.75326L4.65053 6.4225C4.47277 6.60027 4.29501 6.94987 4.25945 7.20466L4.00466 8.98822C3.90985 9.63409 4.36611 10.0844 5.01199 9.99554L6.79554 9.74075C7.04441 9.7052 7.39401 9.52743 7.5777 9.34967L12.2469 4.68043C13.0528 3.87457 13.432 2.93835 12.2469 1.75326C11.0619 0.568171 10.1256 0.947399 9.31978 1.75326Z" stroke="white" stroke-miterlimit="10" stroke-linecap="round" stroke-linejoin="round"/>
<path d="M8.6496 2.42285C9.0466 3.83903 10.1547 4.94709 11.5768 5.35002" stroke="white" stroke-miterlimit="10" stroke-linecap="round" stroke-linejoin="round"/>
</svg>
