<svg width="14" height="14" viewBox="0 0 14 14" fill="none" xmlns="http://www.w3.org/2000/svg">
<path d="M6.98712 1V5.1958L8.20521 3.997" stroke="#5459EA" stroke-linecap="round" stroke-linejoin="round"/>
<path d="M6.98719 5.19581L5.7691 3.99701" stroke="#5459EA" stroke-linecap="round" stroke-linejoin="round"/>
<path d="M0.884705 7.59341H3.57058C3.80202 7.59341 4.00909 7.71929 4.11263 7.92308L4.82521 9.32568C5.03228 9.73327 5.45252 9.99102 5.9154 9.99102H8.06532C8.52819 9.99102 8.94843 9.73327 9.1555 9.32568L9.86808 7.92308C9.97162 7.71929 10.1848 7.59341 10.4101 7.59341H13.0656" stroke="#5459EA" stroke-linecap="round" stroke-linejoin="round"/>
<path d="M3.94203 2.27673C1.78602 2.58842 0.89682 3.83517 0.89682 6.39462V8.79222C0.89682 11.7892 2.1149 12.988 5.16012 12.988H8.81437C11.8596 12.988 13.0777 11.7892 13.0777 8.79222V6.39462C13.0777 3.83517 12.1885 2.58842 10.0325 2.27673" stroke="#5459EA" stroke-linecap="round" stroke-linejoin="round"/>
</svg>
