<svg width="18" height="18" viewBox="0 0 20 20" fill="none" xmlns="http://www.w3.org/2000/svg">
<path d="M6.40002 9.99999C6.40002 10.3183 6.2736 10.6235 6.04855 10.8485C5.82351 11.0736 5.51828 11.2 5.20002 11.2C4.88176 11.2 4.57654 11.0736 4.3515 10.8485C4.12645 10.6235 4.00002 10.3183 4.00002 9.99999C4.00002 9.68173 4.12645 9.37651 4.3515 9.15147C4.57654 8.92642 4.88176 8.79999 5.20002 8.79999C5.51828 8.79999 5.82351 8.92642 6.04855 9.15147C6.2736 9.37651 6.40002 9.68173 6.40002 9.99999V9.99999ZM11.2 9.99999C11.2 10.3183 11.0736 10.6235 10.8486 10.8485C10.6235 11.0736 10.3183 11.2 10 11.2C9.68176 11.2 9.37654 11.0736 9.1515 10.8485C8.92645 10.6235 8.80002 10.3183 8.80002 9.99999C8.80002 9.68173 8.92645 9.37651 9.1515 9.15147C9.37654 8.92642 9.68176 8.79999 10 8.79999C10.3183 8.79999 10.6235 8.92642 10.8486 9.15147C11.0736 9.37651 11.2 9.68173 11.2 9.99999V9.99999ZM16 9.99999C16 10.3183 15.8736 10.6235 15.6486 10.8485C15.4235 11.0736 15.1183 11.2 14.8 11.2C14.4818 11.2 14.1765 11.0736 13.9515 10.8485C13.7265 10.6235 13.6 10.3183 13.6 9.99999C13.6 9.68173 13.7265 9.37651 13.9515 9.15147C14.1765 8.92642 14.4818 8.79999 14.8 8.79999C15.1183 8.79999 15.4235 8.92642 15.6486 9.15147C15.8736 9.37651 16 9.68173 16 9.99999V9.99999ZM10 0.399994C7.45395 0.399994 5.01215 1.41142 3.2118 3.21177C1.41145 5.01212 0.400024 7.45392 0.400024 9.99999C0.400024 12.5461 1.41145 14.9879 3.2118 16.7882C5.01215 18.5886 7.45395 19.6 10 19.6C12.5461 19.6 14.9879 18.5886 16.7883 16.7882C18.5886 14.9879 19.6 12.5461 19.6 9.99999C19.6 7.45392 18.5886 5.01212 16.7883 3.21177C14.9879 1.41142 12.5461 0.399994 10 0.399994V0.399994ZM1.60002 9.99999C1.60002 8.89689 1.8173 7.80459 2.23944 6.78545C2.66158 5.76632 3.28032 4.84031 4.06033 4.0603C4.84034 3.28028 5.76635 2.66155 6.78548 2.23941C7.80462 1.81727 8.89692 1.59999 10 1.59999C11.1031 1.59999 12.1954 1.81727 13.2146 2.23941C14.2337 2.66155 15.1597 3.28028 15.9397 4.0603C16.7197 4.84031 17.3385 5.76632 17.7606 6.78545C18.1828 7.80459 18.4 8.89689 18.4 9.99999C18.4 12.2278 17.515 14.3644 15.9397 15.9397C14.3644 17.515 12.2278 18.4 10 18.4C7.77221 18.4 5.63563 17.515 4.06033 15.9397C2.48502 14.3644 1.60002 12.2278 1.60002 9.99999Z" fill="#1628c5"/>
</svg>
