<svg width="168" height="168" viewBox="0 0 168 168" fill="none" xmlns="http://www.w3.org/2000/svg">
<rect width="168" height="168" rx="12" fill="#F7F7F7"/>
<path d="M83.5433 39C70.7756 39 60.3386 49.437 60.3386 62.2047C60.3386 74.9724 70.7756 85.4094 83.5433 85.4094C96.311 85.4094 106.748 74.9724 106.748 62.2047C106.748 49.437 96.311 39 83.5433 39Z" fill="white"/>
<path d="M123.366 103.953C122.758 102.433 121.948 101.014 121.036 99.6969C116.374 92.8063 109.18 88.2465 101.074 87.1319C100.06 87.0306 98.9457 87.2331 98.135 87.8412C93.8791 90.9824 88.8127 92.6037 83.5434 92.6037C78.2741 92.6037 73.2076 90.9824 68.9517 87.8412C68.141 87.2331 67.0264 86.9292 66.0132 87.1319C57.9067 88.2465 50.611 92.8063 46.0512 99.6969C45.1392 101.014 44.3285 102.534 43.7206 103.953C43.4167 104.561 41.7327 107.892 42.0366 108.5C42.8473 109.919 42.9099 109.595 43.8219 110.811C45.2404 112.736 48.3144 114.879 50.0371 116.5C51.4557 117.919 54.0371 119.5 55.5371 120.5C63.5421 126.479 73.5118 128.373 83.4421 128.373C93.3725 128.373 103.532 126.478 111.537 120.5C113.158 119.284 115.118 118.419 116.537 117C118.158 115.379 120.618 113.925 122.037 112C123.05 110.683 124.226 109.919 125.037 108.5C125.543 107.892 123.67 104.561 123.366 103.953Z" fill="white"/>
</svg>
