<svg width="16" height="17" viewBox="0 0 16 17" fill="none" xmlns="http://www.w3.org/2000/svg">
<path d="M7.60776 5.81438e-09C8.28244 -4.53024e-05 8.93157 0.264707 9.42198 0.739946C9.91239 1.21518 10.2069 1.86488 10.2451 2.55576L10.2492 2.70914H14.5161C14.6705 2.70918 14.8192 2.76936 14.932 2.8775C15.0449 2.98563 15.1135 3.13368 15.124 3.29171C15.1345 3.44974 15.0862 3.60598 14.9887 3.72885C14.8913 3.85173 14.752 3.93208 14.599 3.95367L14.5161 3.95951H13.8691L12.8288 14.8127C12.7767 15.3538 12.5387 15.8583 12.1575 16.236C11.7762 16.6138 11.2764 16.8403 10.7474 16.875L10.6043 16.88H4.61118C4.08084 16.88 3.56778 16.6865 3.1637 16.3342C2.75961 15.982 2.49084 15.4938 2.4054 14.9569L2.38671 14.8119L1.34559 3.95951H0.69946C0.552161 3.9595 0.409847 3.90479 0.298836 3.80549C0.187824 3.70619 0.115627 3.56902 0.0955939 3.41935L0.0899048 3.33432C0.089911 3.18324 0.143255 3.03728 0.240072 2.92342C0.33689 2.80957 0.47063 2.73552 0.616561 2.71497L0.69946 2.70914H4.96635C4.96635 1.99063 5.24464 1.30155 5.74 0.793487C6.23536 0.285426 6.90721 5.81438e-09 7.60776 5.81438e-09ZM12.6443 3.95951H2.57039L3.60013 14.6894C3.62293 14.9288 3.7258 15.1527 3.89127 15.3232C4.05675 15.4937 4.27464 15.6002 4.50796 15.6246L4.61118 15.6296H10.6043C11.092 15.6296 11.5057 15.2754 11.5999 14.7944L11.6162 14.6894L12.6435 3.95951H12.6443ZM9.03005 6.25185C9.17735 6.25186 9.31967 6.30657 9.43068 6.40587C9.54169 6.50517 9.61389 6.64234 9.63392 6.79201L9.63961 6.87704V12.7121C9.63956 12.8705 9.58089 13.023 9.47546 13.1387C9.37002 13.2545 9.22568 13.3248 9.0716 13.3356C8.91752 13.3464 8.76519 13.2968 8.64538 13.1969C8.52558 13.0969 8.44724 12.954 8.42619 12.7971L8.4205 12.7121V6.87704C8.4205 6.71123 8.48472 6.55221 8.59903 6.43496C8.71335 6.31772 8.86839 6.25185 9.03005 6.25185ZM6.18546 6.25185C6.33276 6.25186 6.47507 6.30657 6.58608 6.40587C6.6971 6.50517 6.76929 6.64234 6.78933 6.79201L6.79502 6.87704V12.7121C6.79497 12.8705 6.7363 13.023 6.63086 13.1387C6.52543 13.2545 6.38109 13.3248 6.22701 13.3356C6.07293 13.3464 5.92059 13.2968 5.80079 13.1969C5.68099 13.0969 5.60264 12.954 5.58159 12.7971L5.5759 12.7121V6.87704C5.5759 6.71123 5.64013 6.55221 5.75444 6.43496C5.86875 6.31772 6.0238 6.25185 6.18546 6.25185ZM7.60776 1.25037C7.25081 1.25038 6.90692 1.38805 6.64434 1.63605C6.38177 1.88405 6.21971 2.22424 6.19034 2.5891L6.18546 2.70914H9.03005C9.03005 2.32225 8.8802 1.9512 8.61347 1.67763C8.34674 1.40406 7.98497 1.25037 7.60776 1.25037Z" fill="#1628c5"/>
</svg>
