<svg width="18" height="19" viewBox="0 0 18 19" fill="none" xmlns="http://www.w3.org/2000/svg">
<path d="M8.2876 1.20947H6.6626C2.6001 1.20947 0.975098 2.87614 0.975098 7.04281V12.0428C0.975098 16.2095 2.6001 17.8761 6.6626 17.8761H11.5376C15.6001 17.8761 17.2251 16.2095 17.2251 12.0428V10.3761" stroke="#783EFD" stroke-linecap="round" stroke-linejoin="round"/>
<path d="M12.3827 2.05936L5.98018 8.62602C5.73643 8.87602 5.49268 9.36769 5.44393 9.72602L5.09456 12.2344C4.96456 13.1427 5.59018 13.776 6.47581 13.651L8.92143 13.2927C9.26268 13.2427 9.74206 12.9927 9.99393 12.7427L16.3964 6.17602C17.5014 5.04269 18.0214 3.72602 16.3964 2.05936C14.7714 0.392691 13.4877 0.926024 12.3827 2.05936Z" stroke="#783EFD" stroke-miterlimit="10" stroke-linecap="round" stroke-linejoin="round"/>
<path d="M11.4645 3.00098C12.0089 4.99264 13.5282 6.55098 15.4782 7.11764" stroke="#783EFD" stroke-miterlimit="10" stroke-linecap="round" stroke-linejoin="round"/>
</svg>
