<svg width="20" height="20" viewBox="0 0 20 20" fill="none" xmlns="http://www.w3.org/2000/svg">
<path d="M10 5C5.39751 5 1.66668 10 1.66668 10C1.66668 10 5.39751 15 10 15C14.6025 15 18.3333 10 18.3333 10C18.3333 10 14.6025 5 10 5Z" stroke="#101010" stroke-width="1.66667" stroke-linejoin="round"/>
<path d="M10 7.91665C9.44748 7.91665 8.91757 8.13614 8.52687 8.52684C8.13617 8.91754 7.91668 9.44745 7.91668 9.99998C7.91668 10.5525 8.13617 11.0824 8.52687 11.4731C8.91757 11.8638 9.44748 12.0833 10 12.0833C10.5525 12.0833 11.0824 11.8638 11.4731 11.4731C11.8639 11.0824 12.0833 10.5525 12.0833 9.99998C12.0833 9.44745 11.8639 8.91754 11.4731 8.52684C11.0824 8.13614 10.5525 7.91665 10 7.91665Z" stroke="#101010" stroke-width="1.66667" stroke-linejoin="round"/>
</svg>
