<svg width="84" height="90" viewBox="0 0 84 90" fill="none" xmlns="http://www.w3.org/2000/svg">
<path d="M41.5433 0C28.7756 0 18.3386 10.437 18.3386 23.2047C18.3386 35.9724 28.7756 46.4094 41.5433 46.4094C54.311 46.4094 64.748 35.9724 64.748 23.2047C64.748 10.437 54.311 0 41.5433 0Z" fill="white"/>
<path d="M81.3661 64.9528C80.7581 63.4328 79.9475 62.0142 79.0356 60.6969C74.3743 53.8063 67.18 49.2465 59.0736 48.1319C58.0604 48.0306 56.9457 48.2331 56.135 48.8412C51.8791 51.9824 46.8127 53.6037 41.5434 53.6037C36.2741 53.6037 31.2076 51.9824 26.9517 48.8412C26.141 48.2331 25.0264 47.9292 24.0132 48.1319C15.9067 49.2465 8.611 53.8063 4.05117 60.6969C3.13921 62.0142 2.32849 63.5342 1.72064 64.9528C1.41671 65.5609 -0.267311 68.892 0.0366131 69.5C0.847335 70.9186 0.909915 70.595 1.82188 71.8109C3.24045 73.7363 6.31442 75.8787 8.03711 77.5C9.45568 78.9186 12.0371 80.5 13.5371 81.5C21.5421 87.4786 31.5118 89.3734 41.4421 89.3734C51.3725 89.3734 61.5321 87.4784 69.5371 81.5C71.1583 80.2841 73.1183 79.4186 74.5371 78C76.1583 76.3787 78.6183 74.9252 80.0371 73C81.0503 71.6827 82.2262 70.9186 83.0367 69.5C83.5431 68.892 81.67 65.5607 81.3661 64.9528Z" fill="white"/>
</svg>
