<svg width="20" height="20" viewBox="0 0 20 20" fill="none" xmlns="http://www.w3.org/2000/svg">
<path d="M16.75 18H3.25C2.41986 18.0001 1.62117 17.6824 1.01777 17.1123C0.414367 16.5422 0.0519987 15.7628 0.00500013 14.934L1.69987e-08 14.75V4.25C-7.00219e-05 3.67987 0.216295 3.13098 0.605369 2.71425C0.994443 2.29751 1.52721 2.04402 2.096 2.005L2.25 2H14.75C15.3201 1.99993 15.869 2.2163 16.2858 2.60537C16.7025 2.99444 16.956 3.52721 16.995 4.096L17 4.25V5H17.75C18.3201 4.99993 18.869 5.2163 19.2858 5.60537C19.7025 5.99444 19.956 6.52721 19.995 7.096L20 7.25V14.75C20.0001 15.5801 19.6824 16.3788 19.1123 16.9822C18.5422 17.5856 17.7628 17.948 16.934 17.995L16.75 18H3.25H16.75ZM3.25 16.5H16.75C17.1893 16.5 17.6126 16.3347 17.9357 16.037C18.2588 15.7392 18.4581 15.3309 18.494 14.893L18.5 14.75V7.25C18.5 7.06876 18.4344 6.89366 18.3152 6.75707C18.1961 6.62048 18.0316 6.53165 17.852 6.507L17.75 6.5H17V14.25C17 14.4312 16.9344 14.6063 16.8152 14.7429C16.6961 14.8795 16.5316 14.9684 16.352 14.993L16.25 15C16.0688 15 15.8937 14.9344 15.7571 14.8152C15.6205 14.6961 15.5316 14.5316 15.507 14.352L15.5 14.25V4.25C15.5 4.06876 15.4344 3.89366 15.3152 3.75707C15.1961 3.62048 15.0316 3.53165 14.852 3.507L14.75 3.5H2.25C2.06876 3.50001 1.89366 3.56564 1.75707 3.68477C1.62048 3.80389 1.53165 3.96845 1.507 4.148L1.5 4.25V14.75C1.50002 15.1892 1.66517 15.6123 1.96268 15.9354C2.26019 16.2585 2.6683 16.4579 3.106 16.494L3.25 16.5H16.75H3.25ZM10.246 12.5H13.252C13.442 12.5001 13.6249 12.5722 13.7638 12.702C13.9026 12.8317 13.9871 13.0093 14 13.1989C14.013 13.3885 13.9535 13.5759 13.8336 13.7233C13.7137 13.8707 13.5422 13.9671 13.354 13.993L13.252 14H10.246C10.056 13.9999 9.87306 13.9278 9.73421 13.798C9.59536 13.6683 9.51093 13.4907 9.49797 13.3011C9.48502 13.1115 9.54452 12.9241 9.66443 12.7767C9.78435 12.6293 9.95575 12.5329 10.144 12.507L10.246 12.5H13.252H10.246ZM7.243 9.005C7.44191 9.005 7.63268 9.08402 7.77333 9.22467C7.91398 9.36532 7.993 9.55609 7.993 9.755V13.25C7.993 13.4489 7.91398 13.6397 7.77333 13.7803C7.63268 13.921 7.44191 14 7.243 14H3.748C3.54909 14 3.35832 13.921 3.21767 13.7803C3.07702 13.6397 2.998 13.4489 2.998 13.25V9.755C2.998 9.55609 3.07702 9.36532 3.21767 9.22467C3.35832 9.08402 3.54909 9.005 3.748 9.005H7.243ZM6.493 10.505H4.498V12.5H6.493V10.505ZM10.246 9.005H13.252C13.442 9.00506 13.6249 9.07724 13.7638 9.20697C13.9026 9.3367 13.9871 9.5143 14 9.70388C14.013 9.89346 13.9535 10.0809 13.8336 10.2283C13.7137 10.3757 13.5422 10.4721 13.354 10.498L13.252 10.505H10.246C10.0546 10.5069 9.86974 10.4357 9.72922 10.3057C9.58869 10.1758 9.50315 9.99707 9.49012 9.80612C9.47708 9.61518 9.53753 9.42648 9.6591 9.27866C9.78066 9.13084 9.95413 9.03508 10.144 9.011L10.246 9.005H13.252H10.246ZM3.748 5.502H13.252C13.4434 5.50005 13.6283 5.57134 13.7688 5.70127C13.9093 5.8312 13.9948 6.00993 14.0079 6.20088C14.0209 6.39182 13.9605 6.58052 13.8389 6.72834C13.7173 6.87616 13.5439 6.97192 13.354 6.996L13.252 7.002H3.748C3.55798 7.00194 3.37506 6.92976 3.23621 6.80003C3.09736 6.6703 3.01293 6.4927 2.99997 6.30312C2.98702 6.11354 3.04652 5.92611 3.16643 5.7787C3.28635 5.63129 3.45775 5.5349 3.646 5.509L3.748 5.502H13.252H3.748Z" fill="#8C94B1"/>
</svg>
