<svg width="22" height="22" viewBox="0 0 22 22" fill="none" xmlns="http://www.w3.org/2000/svg">
<path d="M17.0001 6.16C16.9401 6.15 16.8701 6.15 16.8101 6.16C15.4301 6.11 14.3301 4.98 14.3301 3.58C14.3301 2.15 15.4801 1 16.9101 1C18.3401 1 19.4901 2.16 19.4901 3.58C19.4801 4.98 18.3801 6.11 17.0001 6.16Z" stroke="#00140E" stroke-width="1.5" stroke-linecap="round" stroke-linejoin="round"/>
<path d="M15.9701 13.44C17.3401 13.67 18.8501 13.43 19.9101 12.72C21.3201 11.78 21.3201 10.24 19.9101 9.30004C18.8401 8.59004 17.3101 8.35003 15.9401 8.59003" stroke="#00140E" stroke-width="1.5" stroke-linecap="round" stroke-linejoin="round"/>
<path d="M4.96998 6.16C5.02998 6.15 5.09998 6.15 5.15998 6.16C6.53998 6.11 7.63998 4.98 7.63998 3.58C7.63998 2.15 6.48998 1 5.05998 1C3.62998 1 2.47998 2.16 2.47998 3.58C2.48998 4.98 3.58998 6.11 4.96998 6.16Z" stroke="#00140E" stroke-width="1.5" stroke-linecap="round" stroke-linejoin="round"/>
<path d="M6 13.44C4.63 13.67 3.12 13.43 2.06 12.72C0.650002 11.78 0.650002 10.24 2.06 9.30004C3.13 8.59004 4.66 8.35003 6.03 8.59003" stroke="#00140E" stroke-width="1.5" stroke-linecap="round" stroke-linejoin="round"/>
<path d="M11 13.63C10.94 13.62 10.87 13.62 10.81 13.63C9.43002 13.58 8.33002 12.45 8.33002 11.05C8.33002 9.61997 9.48001 8.46997 10.91 8.46997C12.34 8.46997 13.49 9.62997 13.49 11.05C13.48 12.45 12.38 13.59 11 13.63Z" stroke="#00140E" stroke-width="1.5" stroke-linecap="round" stroke-linejoin="round"/>
<path d="M8.08997 16.78C6.67997 17.72 6.67997 19.26 8.08997 20.2C9.68997 21.27 12.31 21.27 13.91 20.2C15.32 19.26 15.32 17.72 13.91 16.78C12.32 15.72 9.68997 15.72 8.08997 16.78Z" stroke="#00140E" stroke-width="1.5" stroke-linecap="round" stroke-linejoin="round"/>
</svg>
